<?xml version="1.0" encoding="utf-8"?>
<!-- Generator: Adobe Illustrator 22.1.0, SVG Export Plug-In . SVG Version: 6.00 Build 0)  -->
<svg version="1.1" xmlns="http://www.w3.org/2000/svg" xmlns:xlink="http://www.w3.org/1999/xlink" x="0px" y="0px" width="512px"
	 height="512px" viewBox="0 0 612 612" style="enable-background:new 0 0 512 512;" xml:space="preserve">
<style type="text/css">
	.st0{display:none;}
	.st1{display:inline;stroke:#FFFFFF;stroke-miterlimit:10;}
	.st2{fill:#FFFFFF;fill-opacity:0;stroke:#FFFFFF;stroke-width:13;}
	.st3{fill:#FFFFFF;stroke:#FFFFFF;stroke-miterlimit:10;}
	.st4{fill:#FFFFFF;}
</style>
<g id="Calque_2" class="st0">
	<rect x="-8" y="-7" class="st1" width="532" height="528"/>
</g>
<g id="Calque_1">
	<g transform="translate(55,74)">
		<path class="st2" d="M183.8,25l-13.4,99h171.2l-13.4-99H183.8z M104.3,137L73.8,487h364.4l-30.5-350H104.3z M135,199h242v48h32
			v114h-32v48H135V199z M359,247v-30H153v174h206v-30 M257.2,257.7c-6.5,22-26.5,35.6-15.6,58.1c-17.8-9.5-18.2-31.1-21.4-46.6
			c-2.2,15.5-9.3,40.8-6.8,55.4c-6.3-4.6-16.6-7.9-23.2-15c7,28.2,12.9,48.8,36.8,50.4h51.5c32.1-3.6,26.8-47.3,41-64.2
			c-12.7,0.4-25.9,16.5-32.8,24.3c10.3-18.7,5.5-30.9,4.3-46.3c-5.1,9.8-16.9,37.7-23.3,35.6c-8.5-2.6-9.3-47.7-10.5-65.7V257.7z
			 M361,265v78h30v-78H361z M183,464v-32h18v32 M247,432h18v32h-18V432z M311,432h18v32h-18V432z"/>
	</g>
	<rect x="181" y="409.7" class="st3" width="31.3" height="45"/>
	<rect x="245" y="409.3" class="st3" width="31.3" height="45"/>
	<rect x="309.3" y="409.3" class="st3" width="31.3" height="45"/>
	<rect x="357.3" y="194.3" class="st4" width="13.3" height="187"/>
</g>

<style type="text/css">
	.st0{fill:#FFFFFF;}
	.st1{font-size:220px;}
</style>
<text transform="matrix(1 0 0 1 1 155)" class="st0 st1">L</text>
</svg>

