<?xml version="1.0" encoding="utf-8"?>
<!-- Generator: Adobe Illustrator 22.1.0, SVG Export Plug-In . SVG Version: 6.00 Build 0)  -->
<svg version="1.1" xmlns="http://www.w3.org/2000/svg" xmlns:xlink="http://www.w3.org/1999/xlink" x="0px" y="0px" width="512px"
	 height="512px" viewBox="0 0 612 612" style="enable-background:new 0 0 512 512;" xml:space="preserve">
<style type="text/css">
	.st0{display:none;}
	.st1{display:inline;stroke:#FFFFFF;stroke-miterlimit:10;}
	.st2{fill:#FFFFFF;fill-opacity:0;stroke:#FFFFFF;stroke-width:24;}
	.st3{fill:#FFFFFF;stroke:#FFFFFF;stroke-width:24;}
</style>
<g id="Calque_2" class="st0">
	<rect x="-17" y="-10" class="st1" width="543" height="538"/>
</g>
<g id="Calque_1">
	<g transform="translate(55,74)">
		<path class="st2" d="M256,27.1c-44.3,0-88.4,3.4-119,10v63.8h238V37.1C344.4,30.5,300.3,27.1,256,27.1z M164.4,118.9l15.8,132
			c5.8-0.3,11.8-0.6,18-0.9l-15.7-131.1L164.4,118.9z M246.9,118.9l-1.6,130h18l1.6-130L246.9,118.9z M329.5,118.9L313.8,250
			c6.2,0.3,12.2,0.6,18,0.9l15.8-132L329.5,118.9z M256,266.9c-31.8,0-63.6,1-89.3,3c-12.8,1-24.1,2.2-33,3.6
			c-5.4,0.9-9.5,1.9-12.7,2.8v32.6h270v-32.6c-3.2-0.9-7.3-1.9-12.7-2.8c-8.9-1.4-20.2-2.6-33-3.6
			C319.6,267.9,287.8,266.9,256,266.9L256,266.9z M153,326.9v158h30v-158H153z M329,326.9v158h30v-158H329z M201,390.9v16h110v-16
			H201z"/>
	</g>
	<rect x="165" y="318" class="st3" width="16" height="142"/>
	<rect x="343" y="320" class="st3" width="11" height="141"/>
	<rect x="148" y="24" class="st3" width="226" height="45"/>
	<rect x="131" y="264" class="st3" width="253" height="21"/>
</g>

<style type="text/css">
	.st0{fill:#FFFFFF;}
	.st1{font-size:220px;}
</style>
<text transform="matrix(1 0 0 1 1 155)" class="st0 st1">M</text>
</svg>

