<?xml version="1.0" encoding="utf-8"?>
<!-- Generator: Adobe Illustrator 22.1.0, SVG Export Plug-In . SVG Version: 6.00 Build 0)  -->
<svg version="1.1" id="Calque_1" xmlns="http://www.w3.org/2000/svg" xmlns:xlink="http://www.w3.org/1999/xlink" x="0px" y="0px"
	 width="512px" height="512px" viewBox="0 0 612 612" style="enable-background:new 0 0 512 512;" xml:space="preserve">
<style type="text/css">
	.st0{fill:#FFFFFF;}
</style>
<g transform="translate(0.000000,87.000000) scale(0.100000,-0.100000)">
	<path class="st0" d="M479.4-906.8c0-25.2,23.1-65.2,52.6-90.4c31.5-25.2,82-117.7,124-224.9l71.5-185H403.7H80v-71.5
		c0-52.6,10.5-75.7,39.9-86.2c27.3-8.4,65.2-77.8,117.7-220.7c84.1-220.7,111.4-260.7,250.2-325.8c79.9-37.8,92.5-56.8,161.9-231.2
		l73.6-189.2l-311.1-6.3l-311.1-6.3v-71.5v-73.6h2266.1h2264l75.7,61c58.9,48.3,90.4,105.1,142.9,248.1
		c37.8,100.9,92.5,206,119.8,231.2c31.5,29.4,50.5,69.4,50.5,111.4v63.1h-315.3c-172.4,0-315.3,8.4-315.3,16.8
		c0,48.3,140.8,370,168.2,384.7c16.8,8.4,65.2,31.5,107.2,50.5c84.1,37.8,134.5,115.6,208.1,325.8c25.2,75.7,69.4,157.7,96.7,182.9
		s50.5,71.5,50.5,100.9v52.6H2749.7H479.4V-906.8z M1173.1-995.1c0-23.1-134.5-361.6-153.5-384.7c-25.2-35.7-130.3-35.7-157.7,0
		c-18.9,23.1-151.4,357.4-151.4,384.7c0,4.2,105.1,8.4,231.2,8.4C1070.1-986.7,1173.1-990.9,1173.1-995.1z M1471.6-1022.4
		c18.9-21,61-115.6,96.7-210.2l63.1-174.5h-237.5h-237.5l67.3,174.5c35.7,96.7,77.8,191.3,94.6,210.2
		C1356-976.2,1431.7-976.2,1471.6-1022.4z M2077-997.2c0-27.3-128.2-355.3-149.3-380.5c-29.4-35.7-132.4-37.8-159.8-2.1
		c-10.5,12.6-44.1,92.5-75.7,172.4c-29.4,82-58.9,164-67.3,185c-14.7,33.6,4.2,35.7,218.6,35.7C1971.9-986.7,2077-990.9,2077-997.2z
		 M2367.1-1005.6c14.7-8.4,58.9-100.9,98.8-203.9l69.4-187.1l-220.7-6.3c-121.9-2.1-227-2.1-231.2,4.2
		c-12.6,12.6,92.5,298.5,132.4,365.8C2247.3-986.7,2316.7-972,2367.1-1005.6z M2930.5-1163.3c-77.8-206-105.1-243.8-172.4-243.8
		c-61,0-103,44.1-136.6,140.8c-12.6,44.1-42,124-63.1,180.8l-39.9,98.8h239.6h237.5L2930.5-1163.3z M3289.9-1011.9
		c18.9-25.2,153.5-363.7,153.5-386.8c0-4.2-103-8.4-231.2-8.4c-126.1,0-231.2,4.2-231.2,8.4c0,27.3,132.4,361.6,151.4,384.7
		C3159.6-978.3,3264.7-978.3,3289.9-1011.9z M3853.3-1117c-27.3-73.6-58.9-159.8-73.6-195.5c-27.3-71.5-54.7-94.6-117.7-94.6
		c-63.1,0-92.5,44.1-168.2,245.9l-67.3,174.5h239.6h237.5L3853.3-1117z M4198.1-1016.1c21-25.2,149.3-353.2,149.3-380.5
		c0-6.3-103-10.5-231.2-10.5c-126.1,0-231.2,2.1-231.2,6.3c0,33.6,151.4,382.6,172.4,397.3C4099.3-978.3,4170.7-984.6,4198.1-1016.1
		z M4748.8-1148.5c-33.6-90.4-67.3-180.8-75.7-201.8c-18.9-44.1-111.4-69.4-155.6-42c-31.5,18.9-168.2,323.7-170.3,380.5
		c0,18.9,58.9,25.2,231.2,25.2h229.1L4748.8-1148.5z M752.7-1571.1c0-29.4-128.2-349-151.4-378.4c-12.6-14.7-52.6-25.2-88.3-21
		c-61,6.3-71.5,18.9-142.9,195.5c-42,105.1-77.8,195.5-77.8,206c-2.1,8.4,103,14.7,229.1,14.7
		C649.7-1554.3,752.7-1560.6,752.7-1571.1z M1061.7-1579.5c10.5-14.7,44.1-92.5,75.7-174.5c29.4-79.9,58.9-164,67.3-182.9
		c14.7-35.7-4.2-37.8-218.6-37.8c-128.2,0-233.3,6.3-233.3,16.8c0,29.4,128.2,349,151.4,376.3
		C931.4-1545.8,1036.5-1545.8,1061.7-1579.5z M1610.3-1726.6c-73.6-197.6-109.3-248.1-174.5-248.1c-65.2,0-94.6,42-170.3,245.9
		l-67.3,174.5h237.5h237.5L1610.3-1726.6z M1967.7-1581.6c16.8-21,151.4-363.7,151.4-386.8c0-4.2-103-6.3-231.2-6.3
		c-126.1,0-231.2,4.2-231.2,8.4c0,23.1,134.5,361.6,153.5,386.8C1835.3-1545.8,1940.4-1545.8,1967.7-1581.6z M2520.6-1716.1
		c-33.6-90.4-67.3-180.8-75.7-201.8c-18.9-44.1-111.4-69.4-155.6-42c-31.5,18.9-168.2,323.7-170.3,380.5
		c0,18.9,58.9,25.2,231.2,25.2h229.1L2520.6-1716.1z M2884.2-1600.5c39.9-67.3,145-353.2,132.4-365.8c-4.2-6.3-109.3-6.3-231.2-4.2
		l-220.7,6.3l69.4,187.1c39.9,103,84.1,195.5,98.8,203.9C2783.3-1539.5,2852.7-1554.3,2884.2-1600.5z M3485.4-1562.7
		c0-23.1-134.5-361.6-153.5-384.7c-25.2-35.7-130.3-35.7-157.7,0c-18.9,23.1-151.4,357.4-151.4,384.7c0,4.2,105.1,8.4,231.2,8.4
		C3382.4-1554.3,3485.4-1558.5,3485.4-1562.7z M3781.8-1590c16.8-18.9,58.9-113.5,94.6-210.2l67.3-174.5h-239.6h-239.6l23.1,58.9
		c12.6,31.5,42,109.3,65.2,172.4c23.1,63.1,56.8,132.4,75.7,153.5C3668.3-1543.7,3744-1543.7,3781.8-1590z M4389.4-1562.7
		c0-27.3-132.4-361.6-151.4-384.7c-27.3-35.7-132.4-35.7-157.7,0c-18.9,23.1-153.5,361.6-153.5,384.7c0,4.2,105.1,8.4,231.2,8.4
		C4286.4-1554.3,4389.4-1558.5,4389.4-1562.7z M1173.1-2130.2c0-23.1-134.5-361.6-153.5-384.7c-25.2-35.7-130.3-35.7-157.7,0
		c-18.9,23.1-151.4,357.4-151.4,384.7c0,4.2,105.1,8.4,231.2,8.4C1070.1-2121.8,1173.1-2126,1173.1-2130.2z M1461.1-2138.6
		c12.6-8.4,35.7-44.1,48.3-77.8c14.7-35.7,46.2-121.9,73.6-195.5l50.5-130.3h-237.5h-239.6l67.3,174.5
		c35.7,96.7,77.8,191.3,94.6,210.2C1347.6-2119.7,1419.1-2111.3,1461.1-2138.6z M2077-2132.3c0-27.3-128.2-355.3-149.3-380.5
		c-29.4-35.7-132.4-37.8-159.8-4.2c-10.5,14.7-44.1,94.6-75.7,174.5c-29.4,82-58.9,164-67.3,185c-14.7,33.6,4.2,35.7,218.6,35.7
		C1971.9-2121.8,2077-2126,2077-2132.3z M2367.1-2140.7c14.7-8.4,58.9-100.9,98.8-203.9l69.4-187.1l-220.7-6.3
		c-121.9-2.1-227-2.1-231.2,4.2c-12.6,12.6,92.5,298.5,132.4,365.8C2247.3-2121.8,2316.7-2107.1,2367.1-2140.7z M2930.5-2298.4
		c-77.8-206-105.1-243.8-172.4-243.8c-61,0-103,44.1-136.6,140.8c-12.6,44.1-42,124-63.1,180.8l-39.9,98.8h239.6h237.5
		L2930.5-2298.4z M3289.9-2147.1c18.9-25.2,153.5-363.7,153.5-386.8c0-4.2-103-8.4-231.2-8.4c-126.1,0-231.2,4.2-231.2,8.4
		c0,27.3,132.4,361.6,151.4,384.7C3159.6-2113.4,3264.7-2113.4,3289.9-2147.1z M3853.3-2252.2c-27.3-73.6-58.9-159.8-73.6-195.5
		c-27.3-71.5-54.7-94.6-117.7-94.6c-63.1,0-92.5,44.1-168.2,245.9l-67.3,174.5h239.6h237.5L3853.3-2252.2z M4198.1-2151.3
		c21-25.2,149.3-353.2,149.3-380.5c0-6.3-103-10.5-231.2-10.5c-126.1,0-231.2,2.1-231.2,6.3c0,12.6,128.2,336.3,147.1,374.2
		C4059.3-2113.4,4162.3-2107.1,4198.1-2151.3z M4748.8-2283.7c-33.6-90.4-67.3-180.8-75.7-201.8c-18.9-44.1-111.4-69.4-155.6-42
		c-29.4,18.9-170.3,340.5-170.3,388.9c0,8.4,103,16.8,231.2,16.8h229.1L4748.8-2283.7z"/>
</g>

<style type="text/css">
	.st0{fill:#FFFFFF;}
	.st1{font-size:220px;}
</style>
<text transform="matrix(1 0 0 1 1 155)" class="st0 st1">S</text>
</svg>

