<?xml version="1.0" encoding="utf-8"?>
<!-- Generator: Adobe Illustrator 22.1.0, SVG Export Plug-In . SVG Version: 6.00 Build 0)  -->
<svg version="1.1" xmlns="http://www.w3.org/2000/svg" xmlns:xlink="http://www.w3.org/1999/xlink" x="0px" y="0px" width="2048px"
	 height="2048px" viewBox="0 0 2048 2048" style="enable-background:new 0 0 2048 2048;" xml:space="preserve">
<style type="text/css">
	.st0{display:none;}
	.st1{display:inline;}
	.st2{fill:#FFFFFF;}
	.st3{fill:none;stroke:#FFFFFF;stroke-width:40;stroke-miterlimit:10;}
</style>
<g id="Calque_2" class="st0">
	<g class="st1">
		<rect x="-26.5" y="-23.5" width="2113" height="2111"/>
		<path class="st2" d="M2086-23v2110H-26V-23H2086 M2087-24H-27v2112h2114V-24L2087-24z"/>
	</g>
</g>
<g id="Calque_1">
	<polygon class="st3" points="565.5,1794.5 1215.5,1816.5 1480.5,1392.5 1451.8,835.3 1451.5,828.5 1144.5,370.5 527.5,720.5 
		430.5,1380.5 	"/>
	<polygon class="st3" points="1018,1038 552,714.9 1143.1,370 1440,814.3 1289.6,959.3 	"/>
	<polyline class="st3" points="1216,1817 1009,1057 733,1388 565,1795 	"/>
	<line class="st3" x1="430" y1="1381" x2="733" y2="1388"/>
</g>
</svg>
