<?xml version="1.0" encoding="utf-8"?>
<!-- Generator: Adobe Illustrator 22.1.0, SVG Export Plug-In . SVG Version: 6.00 Build 0)  -->
<svg version="1.1" xmlns="http://www.w3.org/2000/svg" xmlns:xlink="http://www.w3.org/1999/xlink" x="0px" y="0px" width="354px"
	 height="354px" viewBox="0 0 354 354" style="enable-background:new 0 0 354 354;" xml:space="preserve">
<style type="text/css">
	.st0{display:none;}
	.st1{display:inline;stroke:#FFFFFF;stroke-width:2;stroke-miterlimit:10;}
	.st2{fill:#FFFFFF;stroke:#FFFFFF;stroke-miterlimit:10;}
</style>
<g id="Calque_2" class="st0">
	<rect x="-22.5" y="-14" class="st1" width="383.5" height="380"/>
</g>
<g id="Calque_1">
	<g transform="translate(0.000000,210.000000) scale(0.100000,-0.100000)">
		<path class="st2" d="M1455.7,1081.2c-68.4-78.4-86.7-91.7-155.1-100c-43.4-6.7-91.7-15-108.4-20c-16.7-5-141.7-118.4-278.5-251.8
			C768.7,564.3,632,445.9,583.6,419.2c-63.4-33.3-105-76.7-170.1-168.4c-68.4-98.4-103.4-131.7-170.1-163.4
			c-73.4-35-93.4-56.7-198.4-223.4C-18.3-237.7-70-329.5-70-337.8c0-8.3,36.7-46.7,81.7-86.7l83.4-70h1605.8h1607.4l78.4,80
			c43.4,43.4,78.4,85,78.4,90c0,6.7-51.7,91.7-115.1,191.8C3251.6,24,3224.9,54.1,3146.5,97.4c-75,43.4-103.4,73.4-173.4,188.4
			c-81.7,133.4-86.7,136.7-188.4,173.4c-85,30-120.1,53.4-180.1,125.1c-41.7,48.4-150.1,155.1-238.4,236.8
			c-155.1,140.1-168.4,148.4-256.8,158.4c-88.4,11.7-100,18.3-171.7,103.4l-76.7,90h-163.4h-163.4L1455.7,1081.2z M1777.5,856.1
			l38.4-50h-85c-88.4,0-91.7,6.7-36.7,71.7C1727.5,916.1,1735.9,914.5,1777.5,856.1z M1544.1,834.4c26.7-73.4,26.7-73.4-25-85
			c-48.4-13.3-71.7,8.3-71.7,66.7c0,36.7,28.3,73.4,58.4,73.4C1515.7,889.5,1532.4,864.4,1544.1,834.4z M2072.7,752.7
			c-15-40-88.4-66.7-126.7-46.7c-38.4,21.7-40,33.3-6.7,76.7c13.3,16.7,25,50,25,73.4c0,40,0,40,58.4-18.3
			C2061,801.1,2079.3,769.4,2072.7,752.7z M1302.3,607.7c30-30,30-31.7-30-41.7c-70-13.3-316.8,5-300.1,21.7
			c6.7,5,41.7,23.3,80,38.4C1137.2,662.7,1257.3,652.7,1302.3,607.7z M1962.6,502.6l40-46.7h-76.7c-53.4,0-78.4,6.7-78.4,21.7
			c0,31.7,51.7,100,65,83.4C1917.6,554.3,1940.9,527.6,1962.6,502.6z M2494.5,432.6c-11.7-30-36.7-45-83.4-51.7
			c-75-13.3-73.4-15-88.4,46.7l-11.7,45h101.7C2514.6,472.6,2514.6,472.6,2494.5,432.6z M1497.4,370.9c0-55,0-55-58.4-28.3
			c-51.7,23.3-55,75-3.3,83.4C1487.4,435.9,1497.4,427.6,1497.4,370.9z M1135.6,334.2c95-61.7,96.7-65,85-125.1
			c-11.7-68.4-35-120.1-53.4-120.1c-6.7,0-25,33.3-41.7,73.4c-16.7,38.4-46.7,81.7-68.4,91.7c-56.7,31.7-101.7,113.4-76.7,143.4
			c11.7,13.3,28.3,18.3,40,11.7C1030.5,402.6,1082.2,369.2,1135.6,334.2z M1645.8,345.9c10-23.3,18.3-85,18.3-138.4
			c0-88.4-3.3-98.4-43.4-116.7c-25-10-46.7-16.7-48.4-15c-1.7,3.3-8.3,76.7-15,165.1l-11.7,160.1l40-6.7
			C1609.1,389.2,1635.8,367.5,1645.8,345.9z M2272.8,142.4c-5-5-40,11.7-90,43.4c-16.7,13.3-18.3,23.3-1.7,53.4
			c20,38.4,21.7,38.4,60-25C2262.8,177.5,2277.8,145.8,2272.8,142.4z M943.8,160.8c33.3-50,36.7-66.7,21.7-100
			c-10-23.3-26.7-38.4-36.7-35c-11.7,3.3-50,50-86.7,103.4c-53.4,73.4-63.4,98.4-46.7,110.1C833.8,260.8,903.8,225.8,943.8,160.8z
			 M1847.6,135.8l-1.7-88.4l-31.7,58.4c-28.3,53.4-28.3,61.7-5,88.4c15,15,30,28.3,33.3,28.3
			C1844.2,222.5,1847.6,182.5,1847.6,135.8z M2537.9,87.4l-43.4-85l-56.7,55c-31.7,30-56.7,60-56.7,66.7
			c0,13.3,113.4,43.4,171.7,46.7C2577.9,172.5,2576.2,162.4,2537.9,87.4z M2899.7,105.8c1.7-23.3-6.7-75-16.7-116.7l-21.7-75
			l-25,46.7c-21.7,41.7-20,56.7,3.3,130.1C2868.1,175.8,2894.7,182.5,2899.7,105.8z M2121,125.8c11.7-18.3-8.3-45-48.4-65
			c-46.7-23.3-75-10-75,38.4c0,35,8.3,40,56.7,40C2086,139.1,2116,132.4,2121,125.8z M545.3,14c36.7-61.7,28.3-70-40-38.4
			c-26.7,11.7-41.7,31.7-41.7,58.4C463.6,90.7,505.3,80.7,545.3,14z M2637.9-2.6c10-41.7-28.3-141.7-53.4-141.7
			c-6.7,0-30,15-51.7,31.7l-38.4,30l53.4,60C2611.3,50.7,2624.6,52.4,2637.9-2.6z M3049.8-51c16.7-28.3,15-30-28.3-20
			c-61.7,16.7-63.4,16.7-40,60C3003.1,29.1,3006.5,25.7,3049.8-51z M1122.2-39.3l48.4-43.4l-55-45l-55-46.7l43.4-68.4
			c23.3-36.7,43.4-71.7,43.4-76.7c0-5-25-8.3-55-8.3c-78.4,0-155.1,83.4-168.4,183.4l-11.7,76.7l71.7,35c40,20,75,36.7,80,36.7
			S1093.9-14.3,1122.2-39.3z M1430.7-87.7c23.3-70,18.3-80-38.4-58.4c-28.3,11.7-41.7,26.7-36.7,43.4c5,13.3,11.7,36.7,16.7,50
			C1385.7-9.3,1410.7-24.3,1430.7-87.7z M2327.8-192.7c35-41.7,21.7-53.4-30-26.7c-31.7,16.7-50,38.4-50,60c0,31.7,3.3,33.3,30,13.3
			C2292.8-157.7,2316.1-179.4,2327.8-192.7z M668.7-186c38.4-26.7,25-35-83.4-50c-93.4-11.7-105-3.3-71.7,58.4
			c13.3,25,28.3,30,71.7,21.7C613.7-161,652-176,668.7-186z M2074.3-221.1c40-23.3,73.4-50,73.4-56.7c0-18.3-166.7-28.3-178.4-11.7
			c-8.3,15,10,111.7,23.3,111.7C1996-177.7,2032.7-197.7,2074.3-221.1z M2948.1-262.8c0-6.7-30-26.7-66.7-41.7
			c-51.7-23.3-65-36.7-56.7-60c6.7-25-1.7-30-58.4-30c-65,0-66.7,1.7-76.7,63.4c-5,33.3-13.3,75-16.7,90c-3.3,21.7,10,31.7,56.7,40
			c33.3,5,68.4,11.7,76.7,15C2826.4-181,2948.1-246.1,2948.1-262.8z M1814.2-321.1v-60l-55,48.4c-45,36.7-50,48.4-30,58.4
			C1792.5-247.7,1814.2-259.4,1814.2-321.1z"/>
	</g>
</g>
</svg>
